<?xml version="1.0" encoding="UTF-8"?>
<svg xmlns="http://www.w3.org/2000/svg" xmlns:xlink="http://www.w3.org/1999/xlink" width="129pt" height="33pt" viewBox="0 0 129 33" version="1.1">
<g id="surface1">
<path style=" stroke:none;fill-rule:nonzero;fill:rgb(80.784314%,5.882353%,47.843137%);fill-opacity:1;" d="M 21.480469 31.667969 C 21.511719 31.578125 23.492188 30.378906 25.890625 29.003906 C 29.808594 26.742188 30.328125 26.488281 30.933594 26.488281 C 32.042969 26.488281 32.839844 27.332031 32.839844 28.53125 C 32.839844 29.195312 32.355469 30.027344 31.792969 30.292969 C 31.496094 30.441406 22.308594 31.816406 21.628906 31.816406 C 21.523438 31.816406 21.449219 31.742188 21.480469 31.667969 Z M 21.480469 31.667969 "/>
<path style=" stroke:none;fill-rule:nonzero;fill:rgb(80.784314%,5.882353%,47.843137%);fill-opacity:1;" d="M 6.65625 31.519531 C 3.507812 31.476562 2.203125 31.386719 1.96875 31.253906 C 1.035156 30.722656 0.917969 28.988281 1.761719 28.234375 C 2.117188 27.925781 2.367188 27.820312 2.855469 27.820312 C 3.566406 27.820312 13.789062 31.222656 13.773438 31.460938 C 13.757812 31.625 12.441406 31.636719 6.65625 31.519531 Z M 6.65625 31.519531 "/>
<path style=" stroke:none;fill-rule:nonzero;fill:rgb(80.784314%,5.882353%,47.843137%);fill-opacity:1;" d="M 8.582031 23.691406 C 5.933594 21.191406 3.625 18.910156 3.445312 18.644531 C 3.03125 18.039062 2.988281 16.882812 3.371094 16.128906 C 4.039062 14.796875 6.007812 14.515625 6.96875 15.625 C 7.277344 15.980469 13.609375 27.878906 13.609375 28.101562 C 13.609375 28.191406 13.566406 28.265625 13.507812 28.265625 C 13.433594 28.25 11.226562 26.191406 8.582031 23.691406 Z M 8.582031 23.691406 "/>
<path style=" stroke:none;fill-rule:nonzero;fill:rgb(80.784314%,5.882353%,47.843137%);fill-opacity:1;" d="M 21.894531 27.730469 C 21.894531 27.570312 22.621094 24.832031 23.507812 21.636719 C 24.882812 16.632812 25.164062 15.761719 25.519531 15.390625 C 26.628906 14.222656 28.640625 14.5625 29.351562 16.027344 C 29.691406 16.75 29.660156 17.863281 29.277344 18.484375 C 28.890625 19.132812 22.398438 27.597656 22.117188 27.820312 C 21.9375 27.96875 21.894531 27.953125 21.894531 27.730469 Z M 21.894531 27.730469 "/>
<path style=" stroke:none;fill-rule:nonzero;fill:rgb(80.784314%,5.882353%,47.843137%);fill-opacity:1;" d="M 14.644531 22.90625 C 13.625 21.355469 12.738281 19.949219 12.679688 19.769531 C 12.5 19.296875 12.691406 18.511719 13.09375 18.113281 C 13.726562 17.476562 14.910156 17.726562 15.28125 18.558594 C 15.605469 19.265625 16.777344 25.453125 16.628906 25.601562 C 16.539062 25.691406 15.753906 24.625 14.644531 22.90625 Z M 14.644531 22.90625 "/>
<path style=" stroke:none;fill-rule:nonzero;fill:rgb(80.784314%,5.882353%,47.843137%);fill-opacity:1;" d="M 2.664062 24.476562 C 0.339844 23.882812 0 23.632812 0 22.582031 C 0 21.648438 0.429688 21.160156 1.257812 21.160156 C 1.65625 21.160156 1.996094 21.265625 2.1875 21.429688 C 2.632812 21.828125 4.882812 24.667969 4.882812 24.847656 C 4.882812 25.054688 5.015625 25.066406 2.664062 24.476562 Z M 2.664062 24.476562 "/>
<path style=" stroke:none;fill-rule:nonzero;fill:rgb(80.784314%,5.882353%,47.843137%);fill-opacity:1;" d="M 28.847656 24.402344 C 28.847656 24.0625 30.949219 20.273438 31.214844 20.125 C 32.132812 19.636719 33.136719 20.332031 33.136719 21.457031 C 33.136719 22.078125 32.679688 22.492188 30.800781 23.589844 C 29.070312 24.59375 28.847656 24.683594 28.847656 24.402344 Z M 28.847656 24.402344 "/>
<path style=" stroke:none;fill-rule:nonzero;fill:rgb(80.784314%,5.882353%,47.843137%);fill-opacity:1;" d="M 19.230469 22.257812 C 19.230469 22.199219 18.730469 19.265625 18.105469 15.730469 C 16.9375 8.953125 16.910156 8.628906 17.457031 7.546875 C 18.035156 6.40625 19.097656 5.769531 20.371094 5.769531 C 21.421875 5.769531 22.25 6.125 22.886719 6.851562 C 23.375 7.414062 23.816406 8.597656 23.816406 9.382812 C 23.816406 10.046875 19.644531 22.34375 19.425781 22.34375 C 19.320312 22.34375 19.230469 22.300781 19.230469 22.257812 Z M 19.230469 22.257812 "/>
<path style=" stroke:none;fill-rule:nonzero;fill:rgb(80.784314%,5.882353%,47.843137%);fill-opacity:1;" d="M 68.421875 16.144531 C 67.03125 15.761719 66.039062 14.871094 65.519531 13.539062 C 65.210938 12.726562 65.179688 12.386719 65.121094 9.144531 L 65.0625 5.625 L 66.246094 5.625 L 66.304688 9.144531 C 66.363281 12.964844 66.4375 13.363281 67.28125 14.25 C 68.449219 15.492188 70.476562 15.507812 71.691406 14.296875 C 72.652344 13.332031 72.785156 12.695312 72.785156 8.847656 L 72.785156 5.625 L 73.996094 5.625 L 73.9375 9.21875 C 73.894531 12.488281 73.847656 12.875 73.554688 13.613281 C 73.152344 14.636719 72.386719 15.464844 71.527344 15.847656 C 70.789062 16.175781 69.117188 16.335938 68.421875 16.144531 Z M 68.421875 16.144531 "/>
<path style=" stroke:none;fill-rule:nonzero;fill:rgb(80.784314%,5.882353%,47.843137%);fill-opacity:1;" d="M 38.464844 10.875 L 38.464844 5.625 L 45.417969 5.625 L 45.417969 6.660156 L 39.648438 6.660156 L 39.648438 10.359375 L 44.527344 10.359375 L 44.527344 11.394531 L 39.648438 11.394531 L 39.648438 16.128906 L 38.464844 16.128906 Z M 38.464844 10.875 "/>
<path style=" stroke:none;fill-rule:nonzero;fill:rgb(80.784314%,5.882353%,47.843137%);fill-opacity:1;" d="M 52.222656 10.875 L 52.222656 5.625 L 53.40625 5.625 L 53.40625 15.09375 L 56.40625 15.125 L 59.394531 15.167969 L 59.441406 15.65625 L 59.484375 16.128906 L 52.222656 16.128906 Z M 52.222656 10.875 "/>
<path style=" stroke:none;fill-rule:nonzero;fill:rgb(80.784314%,5.882353%,47.843137%);fill-opacity:1;" d="M 81.363281 10.875 L 81.363281 5.625 L 84.886719 5.652344 L 88.390625 5.699219 L 88.4375 6.1875 L 88.480469 6.660156 L 82.546875 6.660156 L 82.546875 10.359375 L 87.742188 10.359375 L 87.695312 10.847656 L 87.652344 11.320312 L 85.109375 11.363281 L 82.546875 11.394531 L 82.546875 15.09375 L 88.464844 15.09375 L 88.464844 16.128906 L 81.363281 16.128906 Z M 81.363281 10.875 "/>
<path style=" stroke:none;fill-rule:nonzero;fill:rgb(80.784314%,5.882353%,47.843137%);fill-opacity:1;" d="M 95.417969 10.863281 L 95.417969 5.609375 L 95.890625 5.652344 C 96.304688 5.699219 96.707031 6.140625 99.695312 9.898438 L 103.039062 14.101562 L 103.082031 9.855469 L 103.109375 5.609375 L 103.671875 5.652344 L 104.222656 5.699219 L 104.265625 10.921875 L 104.292969 16.128906 L 103.746094 16.117188 C 103.183594 16.117188 103.140625 16.054688 99.929688 12.03125 L 96.675781 7.933594 L 96.632812 12.03125 L 96.601562 16.128906 L 95.417969 16.128906 Z M 95.417969 10.863281 "/>
<path style=" stroke:none;fill-rule:nonzero;fill:rgb(80.784314%,5.882353%,47.843137%);fill-opacity:1;" d="M 114.503906 11.394531 L 114.503906 6.660156 L 110.804688 6.660156 L 110.804688 5.625 L 119.382812 5.625 L 119.382812 6.660156 L 115.6875 6.660156 L 115.6875 16.128906 L 114.503906 16.128906 Z M 114.503906 11.394531 "/>
<path style=" stroke:none;fill-rule:nonzero;fill:rgb(80.784314%,5.882353%,47.843137%);fill-opacity:1;" d="M 10.875 12.621094 C 8.09375 9.542969 7.839844 9.175781 7.839844 8.332031 C 7.839844 6.96875 8.652344 6.066406 9.898438 6.066406 C 10.695312 6.066406 11.433594 6.496094 11.730469 7.148438 C 11.851562 7.398438 12.265625 9.191406 12.648438 11.097656 C 13.019531 13.007812 13.359375 14.695312 13.402344 14.84375 C 13.59375 15.507812 12.914062 14.902344 10.875 12.621094 Z M 10.875 12.621094 "/>
<path style=" stroke:none;fill-rule:nonzero;fill:rgb(80.784314%,5.882353%,47.843137%);fill-opacity:1;" d="M 26.035156 11.707031 C 26.035156 11.632812 26.449219 10.730469 26.9375 9.707031 C 27.839844 7.859375 27.929688 7.753906 28.609375 7.828125 C 29.304688 7.886719 29.691406 8.804688 29.261719 9.351562 C 28.996094 9.664062 26.777344 11.46875 26.375 11.675781 C 26.183594 11.78125 26.035156 11.792969 26.035156 11.707031 Z M 26.035156 11.707031 "/>
<path style=" stroke:none;fill-rule:nonzero;fill:rgb(100%,100%,100%);fill-opacity:1;" d="M 57.917969 31.3125 C 55.710938 30.292969 55.015625 27.167969 56.554688 25.128906 C 57.960938 23.246094 60.921875 23.1875 62.472656 25.007812 C 64.144531 26.976562 63.628906 30.113281 61.40625 31.253906 C 60.359375 31.800781 59.011719 31.832031 57.917969 31.3125 Z M 61.007812 30.203125 C 61.675781 29.789062 62.28125 28.589844 62.28125 27.671875 C 62.28125 26.8125 61.6875 25.570312 61.054688 25.128906 C 60.417969 24.667969 59.128906 24.59375 58.433594 24.980469 C 57.796875 25.320312 57.027344 26.414062 56.910156 27.15625 C 56.777344 28 57.074219 29.109375 57.578125 29.683594 C 58.554688 30.796875 59.75 30.972656 61.007812 30.203125 Z M 61.007812 30.203125 "/>
<path style=" stroke:none;fill-rule:nonzero;fill:rgb(100%,100%,100%);fill-opacity:1;" d="M 71.941406 31.355469 C 70.625 30.707031 69.679688 29.167969 69.679688 27.671875 C 69.679688 26.84375 70.078125 25.675781 70.609375 24.996094 C 71.277344 24.121094 72.164062 23.675781 73.257812 23.675781 C 74.265625 23.675781 74.839844 23.914062 75.640625 24.683594 L 76.1875 25.214844 L 76.1875 20.71875 L 77.222656 20.71875 L 77.222656 25.511719 C 77.222656 29.582031 77.253906 30.320312 77.445312 30.484375 C 77.5625 30.589844 77.667969 30.898438 77.667969 31.164062 C 77.667969 31.609375 77.621094 31.667969 77.296875 31.667969 C 76.867188 31.667969 76.1875 31.078125 76.1875 30.707031 C 76.1875 30.515625 76.097656 30.542969 75.726562 30.839844 C 74.691406 31.726562 73.109375 31.933594 71.941406 31.355469 Z M 75.019531 30.246094 C 75.890625 29.730469 76.113281 29.269531 76.15625 27.851562 C 76.203125 26.355469 76.007812 25.910156 74.988281 25.15625 C 74.5 24.800781 74.21875 24.714844 73.640625 24.714844 C 72.769531 24.714844 72.25 24.964844 71.628906 25.660156 C 70.800781 26.621094 70.640625 27.925781 71.230469 29.09375 C 71.984375 30.601562 73.570312 31.089844 75.019531 30.246094 Z M 75.019531 30.246094 "/>
<path style=" stroke:none;fill-rule:nonzero;fill:rgb(100%,100%,100%);fill-opacity:1;" d="M 86.734375 31.222656 C 86.304688 30.988281 85.90625 30.660156 85.816406 30.527344 C 85.699219 30.320312 85.667969 30.394531 85.65625 30.898438 C 85.65625 31.503906 85.640625 31.519531 85.136719 31.519531 L 84.621094 31.519531 L 84.621094 20.71875 L 85.65625 20.71875 L 85.65625 25.1875 L 86.410156 24.503906 C 87.238281 23.765625 87.742188 23.601562 89 23.707031 C 90.003906 23.796875 90.863281 24.359375 91.453125 25.320312 C 92.710938 27.347656 92.164062 30.039062 90.242188 31.195312 C 89.558594 31.59375 89.308594 31.667969 88.464844 31.667969 C 87.667969 31.667969 87.371094 31.59375 86.734375 31.222656 Z M 89.425781 30.378906 C 90.300781 29.890625 90.980469 28.707031 90.980469 27.628906 C 90.980469 26.753906 90.359375 25.542969 89.679688 25.082031 C 88.570312 24.328125 86.925781 24.742188 86.070312 25.972656 C 85.714844 26.488281 85.667969 26.710938 85.65625 27.671875 C 85.65625 29.328125 86.128906 30.070312 87.488281 30.542969 C 88.066406 30.734375 88.878906 30.675781 89.425781 30.378906 Z M 89.425781 30.378906 "/>
<path style=" stroke:none;fill-rule:nonzero;fill:rgb(100%,100%,100%);fill-opacity:1;" d="M 99.988281 31.328125 C 99.027344 30.691406 98.894531 30.203125 98.851562 26.742188 L 98.804688 23.664062 L 99.929688 23.75 L 100.003906 26.636719 C 100.050781 28.414062 100.136719 29.640625 100.257812 29.820312 C 100.597656 30.425781 101.023438 30.675781 101.691406 30.675781 C 102.445312 30.660156 103.039062 30.378906 103.570312 29.789062 C 104.441406 28.839844 104.441406 28.828125 104.441406 26.164062 L 104.441406 23.675781 L 105.476562 23.675781 L 105.476562 26.992188 C 105.476562 29.746094 105.507812 30.335938 105.699219 30.484375 C 105.820312 30.589844 105.921875 30.898438 105.921875 31.179688 C 105.921875 31.683594 105.90625 31.699219 105.449219 31.609375 C 104.828125 31.492188 104.621094 31.285156 104.5 30.675781 C 104.414062 30.1875 104.398438 30.1875 104.191406 30.484375 C 104.074219 30.648438 103.628906 30.988281 103.214844 31.222656 C 102.195312 31.800781 100.773438 31.859375 99.988281 31.328125 Z M 99.988281 31.328125 "/>
<path style=" stroke:none;fill-rule:nonzero;fill:rgb(100%,100%,100%);fill-opacity:1;" d="M 113.660156 31.386719 C 113.246094 31.222656 112.726562 30.988281 112.535156 30.824219 C 112.179688 30.574219 112.179688 30.542969 112.386719 30.171875 L 112.625 29.789062 L 113.570312 30.277344 C 115.136719 31.105469 116.882812 30.914062 117.3125 29.890625 C 117.492188 29.476562 117.476562 29.34375 117.296875 29.019531 C 117.078125 28.632812 116.871094 28.546875 114.429688 27.804688 C 113.050781 27.40625 112.578125 26.949219 112.578125 26.042969 C 112.578125 25.113281 112.980469 24.417969 113.761719 24.015625 C 114.960938 23.394531 117.121094 23.648438 118.082031 24.519531 C 118.320312 24.726562 118.320312 24.773438 118.082031 25.082031 L 117.832031 25.410156 L 117.269531 25.023438 C 116.515625 24.535156 115.078125 24.417969 114.371094 24.773438 C 113.480469 25.230469 113.378906 26.28125 114.175781 26.695312 C 114.414062 26.8125 115.152344 27.050781 115.832031 27.230469 C 117.917969 27.761719 118.496094 28.234375 118.496094 29.433594 C 118.496094 30.335938 118.066406 31.015625 117.269531 31.371094 C 116.441406 31.757812 114.710938 31.757812 113.660156 31.386719 Z M 113.660156 31.386719 "/>
<path style=" stroke:none;fill-rule:nonzero;fill:rgb(100%,100%,100%);fill-opacity:1;" d="M 38.316406 26.265625 L 38.316406 21.011719 L 39.585938 21.011719 L 41.570312 24.492188 C 42.695312 26.472656 43.613281 27.910156 43.683594 27.835938 C 43.757812 27.761719 44.660156 26.222656 45.699219 24.402344 L 47.589844 21.085938 L 48.210938 21.042969 L 48.820312 21 L 48.820312 31.519531 L 47.636719 31.519531 L 47.605469 27.449219 L 47.5625 23.394531 L 45.785156 26.488281 C 44.1875 29.316406 43.996094 29.597656 43.625 29.597656 C 43.269531 29.597656 43.0625 29.316406 41.40625 26.386719 L 39.574219 23.160156 L 39.527344 27.347656 L 39.5 31.519531 L 38.316406 31.519531 Z M 38.316406 26.265625 "/>
</g>
</svg>
